<svg xmlns="http://www.w3.org/2000/svg" width="20" height="20" viewBox="0 0 20 20"><defs><clipPath id="foxia"><path fill="#fff" d="M0 2a2 2 0 0 1 2-2h16a2 2 0 0 1 2 2v16a2 2 0 0 1-2 2H2a2 2 0 0 1-2-2z"/></clipPath></defs><g><g><g><path fill="none" stroke="#2196f3" stroke-miterlimit="50" stroke-width="2" d="M0 2a2 2 0 0 1 2-2h16a2 2 0 0 1 2 2v16a2 2 0 0 1-2 2H2a2 2 0 0 1-2-2z" clip-path="url(&quot;#foxia&quot;)"/></g><g><path fill="#2196f3" d="M8.286 14L4 10.161 5.209 9.08l3.077 2.748L14.79 6 16 7.09z"/></g></g></g></svg>